<svg xmlns="http://www.w3.org/2000/svg"><defs><font id="Karla-Regular" horiz-adv-x="280"><font-face font-family="Karla" font-weight="400" ascent="800" descent="-200" x-height="478" cap-height="629" bbox="-86 -246 894 879" underline-thickness="50" underline-position="-150" unicode-range="U+0020-2212"/><glyph glyph-name=".notdef" horiz-adv-x="553"/><glyph glyph-name=".null" horiz-adv-x="0"/><glyph glyph-name="nonmarkingreturn" horiz-adv-x="553"/><glyph glyph-name="space" horiz-adv-x="238"/><glyph glyph-name="space" horiz-adv-x="238"/><glyph glyph-name="exclam" unicode="!" horiz-adv-x="278" d="M99 627h83l-9-451h-64zM98.5 7.5Q82 24 82 47.5t16.5 40 42 16.5 43-16.5 17.5-40-17.5-40-43-16.5-42 16.5z"/><glyph glyph-name="quotedbl" unicode="&quot;" horiz-adv-x="306" d="M110 681L99 461H39L28 681h82zm168 0l-11-220h-60l-11 220h82z"/><glyph glyph-name="numbersign" unicode="#" horiz-adv-x="627" d="M380 170H226L212 31h-74l14 139H53l5 54h100l19 178H76l6 53h100l15 138h74l-15-138h154l15 138h73l-15-138h103l-6-53H478l-19-178h103l-6-54H453L439 31h-74zm-148 54h153l19 178H251z"/><glyph glyph-name="dollar" unicode="$" horiz-adv-x="632" d="M417 330q69-23 107.5-61.5t38.5-105-57-117T347-10v-81h-62v82q-95 8-155.5 59.5T69 189h77q0-113 139-126v235l-32 12q-83 26-125.5 62T85 475t50.5 111.5T285 638v75h62v-76q87-7 134-50t58-111h-78q-17 80-114 92V353zm58-163q0 74-92 103l-36 12V62q63 5 95.5 36t32.5 69zM199 536q-29-27-29-63.5t20-57 65-34.5l30-11v199q-57-6-86-33z"/><glyph glyph-name="percent" unicode="%" horiz-adv-x="726" d="M279 602q38-38 38-106t-37.5-105.5T188 353t-90.5 38T61 496t37 105.5 90 38.5 91-38zm-44-37q-18 22-47 22t-47-22-18-69 18-68 47-21 47 21 18 68-18 69zm299 64h82L193 0h-81zm4-353q54 0 91.5-37.5t37.5-106-37.5-106T538-11t-90.5 38T411 132.5 447.5 238t90.5 38zm0-53q-29 0-47-22t-18-69 18-68 47-21 47 21 18 68-18 69-47 22z"/><glyph glyph-name="ampersand" unicode="&amp;" horiz-adv-x="916" d="M725 350q-45-137-115-222l43-37q20-17 35.5-25t40-8 44 18.5T795 140h74q-4-72-37.5-111.5T734-11q-39 0-72 16t-72 51l-26 22Q464-11 336-11q-105 0-176 52.5T89 168t47.5 111.5T276 332l-14 13q-77 67-77 147 0 63 52.5 105t139 42 138-42T566 495.5 527 393t-127-81l158-139q68 82 112 207zm-513.5-99Q175 224 175 176t41.5-82.5T344 59t167 66L325 288q-77-10-113.5-37zM480 488q0 36-27.5 60t-77 24-77-27.5T271 485t13-57 43-51l27-25q104 48 120 100 6 17 6 36z"/><glyph glyph-name="quotesingle" unicode="'" horiz-adv-x="136" d="M109 677L98 457H38L27 677h82z"/><glyph glyph-name="parenleft" unicode="(" horiz-adv-x="356" d="M155 307q0-205 173-380l-57-40Q173-24 123 84T73 307.5t50 223T271 728l57-41Q155 512 155 307z"/><glyph glyph-name="parenright" unicode=")" horiz-adv-x="356" d="M201 307q0 205-173 380l57 41q98-90 148-197.5t50-223T233 84 85-113L28-73q173 175 173 380z"/><glyph glyph-name="asterisk" unicode="*" horiz-adv-x="412" d="M173 516L56 556l24 54 106-54-10 128h62l-10-128 106 54 24-54-116-40 90-89-44-39-80 104-80-104-45 39z"/><glyph glyph-name="plus" unicode="+" horiz-adv-x="527" d="M303 491V279h206v-67H303V0h-79v212H18v67h206v212h79z"/><glyph glyph-name="comma" unicode="," horiz-adv-x="210" d="M67 10Q52 23 52 45t15.5 37 44 15T159 74.5 178 18t-22-69.5T89-109L30-80q62 30 75 75-23 2-38 15z"/><glyph glyph-name="hyphen" unicode="-" horiz-adv-x="349" d="M38 325h272v-68H38v68z"/><glyph glyph-name="period" unicode="." horiz-adv-x="179" d="M46.5 7.5Q30 24 30 47.5t16.5 40 42 16.5T131 87.5t17-40-17-40T88.5-9t-42 16.5z"/><glyph glyph-name="slash" unicode="/" horiz-adv-x="432" d="M308 731h80L136-73H57z"/><glyph glyph-name="zero" unicode="0" horiz-adv-x="594" d="M478 556q66-84 66-241.5T478 73 298-11 117.5 72 51 314.5 117.5 557 298 640t180-84zm-58-53.5Q378 568 297.5 568T175 502.5t-42-188 42-188T297.5 61 420 126.5t42 188-42 188z"/><glyph glyph-name="one" unicode="1" horiz-adv-x="331" d="M49 580q67 9 117 51h64V0h-78v537q-50-32-103-35v78z"/><glyph glyph-name="two" unicode="2" horiz-adv-x="580" d="M143 73h365V0H64v93q0 111 84 163 27 17 60 30l124 50q96 38 96 125 0 48-33 78.5T302.5 570t-97-25-43.5-75H75q5 82 66 126t156.5 44T453 588t60-128.5T473.5 338 365 266l-127-51q-48-20-71.5-45.5T143 103V73z"/><glyph glyph-name="three" unicode="3" horiz-adv-x="591" d="M505 468q0-100-110-139 60-17 97-56t37-100q0-83-63-133.5T300-11 124.5 42.5 52 193h82q2-64 47.5-98T297 61t108.5 33.5 38.5 83-37 81T287 290h-72v63h49q72 0 114 28.5t42 76.5-34 79-90 31-93.5-19.5T152 476H70q11 83 69 123.5T288.5 640t154-48.5T505 468z"/><glyph glyph-name="four" unicode="4" horiz-adv-x="559" d="M428 638V220h109v-68H428V0h-77v152H26v61l329 425h73zM120 213h233v300z"/><glyph glyph-name="five" unicode="5" horiz-adv-x="565" d="M427 204q0 119-155 119H103l27 306h349v-72H206l-17-181q52 9 99 9 103 0 162-45.5T509 202 447 49.5 287-11 127 38.5 65 175h79q0-82 84-107 26-7 57-7 64 0 103 40.5T427 204z"/><glyph glyph-name="six" unicode="6" horiz-adv-x="573" d="M425 470q-17 98-107 98t-138.5-74T131 292q0-53 5-88 6 92 56.5 133.5T322 379t136-55.5 57-142-59-140T301-12q-112 0-181 90T51 314.5t70 236T312 640q84 0 137-47t61-123h-85zM207.5 273.5Q170 238 170 183t37-88.5T301 61t94.5 33 37.5 91-37.5 91-94 33-94-35.5z"/><glyph glyph-name="seven" unicode="7" horiz-adv-x="470" d="M452 629v-73L164 0H58l302 553H24v76h428z"/><glyph glyph-name="eight" unicode="8" horiz-adv-x="615" d="M201 318Q76 375 76 473q0 75 62 121t164.5 46T471 591t66-126q0-52-34.5-93T401 321l17-6q69-26 106-61.5t37-96.5q0-76-67.5-122t-182-46T126 40 55 168q0 62 40.5 101T201 318zm75-29q-63-7-101-39.5T137 169t48-78 125.5-30 123 26 45.5 63-24 59.5-66 37.5zM159 463q0-27 22-46.5t63-35.5l73-28q60 2 99 31.5t39 77-41 77T308 568t-107-28.5-42-76.5z"/><glyph glyph-name="nine" unicode="9" horiz-adv-x="581" d="M282 640q51 0 97-22t79-63q72-88 72-229 0-245-136-314-47-23-102-23-103 0-163 56T69 186h83q2-57 36-91t86-34 84 19q91 57 91 257 0 41-5 74-10-81-58.5-121t-127-40T123 305.5 66 447q0 87 59 140t157 53zm-3-73q-57 0-94-33t-37-91 37.5-91 94-33 94 35.5T411 445t-37.5 88.5T279 567z"/><glyph glyph-name="colon" unicode=":" horiz-adv-x="231" d="M72.5 39.5Q56 56 56 79.5t16.5 40 42 16.5 42.5-16.5 17-40-17-40T114.5 23t-42 16.5zm0 306Q56 362 56 385.5t16.5 40 42 16.5 42.5-16.5 17-40-17-40-42.5-16.5-42 16.5z"/><glyph glyph-name="semicolon" unicode=";" horiz-adv-x="262" d="M94 10Q79 23 79 45t15.5 37 44 15T186 74.5 205 18t-22-69.5-67-57.5L57-80q62 30 75 75-23 2-38 15zm4.5 335.5Q82 362 82 385.5t16.5 40 42 16.5 42.5-16.5 17-40-17-40-42.5-16.5-42 16.5z"/><glyph glyph-name="less" unicode="&lt;" horiz-adv-x="454" d="M408 512L120 305l288-204-52-61L40 271v69l316 232z"/><glyph glyph-name="equal" unicode="=" horiz-adv-x="488" d="M409 185v-68H79v68h330zm0 192v-69H79v69h330z"/><glyph glyph-name="greater" unicode="&gt;" horiz-adv-x="454" d="M98 572l316-232v-69L98 40l-51 61 286 204L47 512z"/><glyph glyph-name="question" unicode="?" horiz-adv-x="499" d="M248 568q-117 0-134-92H30q7 74 61 119t151.5 45 154-48T453 475q0-52-26-86.5T343 322q-25-14-42-25t-27-25q-19-25-19-72v-39h-78v45q0 63 21 96.5t76 63.5 74 52.5 19 60.5-31.5 63.5T248 568zm-31-466q26 0 43-17t17-40.5T260 5t-43-16-42 16-16 39.5T175 85t42 17z"/><glyph glyph-name="at" unicode="@" horiz-adv-x="940" d="M575 289q0 84-59 84t-106-48.5T363 202q0-53 27.5-82T459 91t67 23.5 49 68.5v106zm66-151q0-51 39-51 20 0 43.5 13.5T766 140q46 61 46 156 0 119-81 196t-220 77q-82 0-149-28t-114-75Q148 366 148 217T254-24.5 545-117v-64q-213 0-347 115-63 54-97 128.5T67 226t33 165 92 131.5T332.5 609 505 640t162-27 121-73.5T866 430t28-130q0-122-64.5-197T679 28q-43 0-69 18t-31 52l-3 16q-18-38-48-62t-70-24q-74 0-121.5 49T289 201q0 99 66 166.5T512 435q60 0 94.5-36T641 290V138z"/><glyph glyph-name="A" unicode="A" horiz-adv-x="575" d="M242 629h96L549 0h-82l-54 160H163L109 0H26zm-58-407h209L289 532z"/><glyph glyph-name="B" unicode="B" horiz-adv-x="622" d="M101 629h235q99 0 152.5-47T542 464q0-54-29.5-94T423 316q59-10 94.5-51t35.5-93q0-116-113-157Q398 0 337 0H101v629zM335 69q72 0 103 29t31 77-34 76.5T335 280H180V69h155zM180 348h154q58 0 92.5 28.5T461 455t-33.5 78-93.5 28H180V348z"/><glyph glyph-name="C" unicode="C" horiz-adv-x="613" d="M319 640q101 0 162.5-50.5T566 458l-85-17q-20 59-62.5 93.5T319 569q-79 0-131-66t-52-183.5T182.5 131 319 60q75 0 118.5 39.5T481 204h85q0-99-67.5-157t-185-58-190 90T51 320t75 235.5T319 640z"/><glyph glyph-name="D" unicode="D" horiz-adv-x="661" d="M285 629q142 0 227.5-85.5t85.5-229-85.5-229T285 0H100v629h185zM179 69h106q105 0 167 69.5T514 315t-62.5 175.5T285 559H179V69z"/><glyph glyph-name="E" unicode="E" horiz-adv-x="562" d="M100 629h387v-68H179V350h290v-67H179V69h308V0H100v629z"/><glyph glyph-name="F" unicode="F" horiz-adv-x="524" d="M101 629h382v-68H180V352h282v-68H180V0h-79v629z"/><glyph glyph-name="G" unicode="G" horiz-adv-x="645" d="M490 108Q448-11 327-11T128.5 77 51 314t84.5 237T346 639q74 0 129.5-30t95.5-96l-76-26q-65 81-152 81t-147.5-71T135 312.5 187 130t140-69q72 0 116 48t44 142v2l-158 6v52h235V0h-64z"/><glyph glyph-name="H" unicode="H" horiz-adv-x="669" d="M180 629V352h309v277h79V0h-79v284H180V0h-79v629h79z"/><glyph glyph-name="I" unicode="I" d="M101 629h79V0h-79v629z"/><glyph glyph-name="J" unicode="J" horiz-adv-x="404" d="M277.5 34Q231-11 159-11T8 31v82q70-48 131.5-48T223 95t22 87v447h79V182q0-103-46.5-148z"/><glyph glyph-name="K" unicode="K" horiz-adv-x="609" d="M181 629V338l281 291h109L296 346 588 0H486L243 291l-62-64V0h-80v629h80z"/><glyph glyph-name="L" unicode="L" horiz-adv-x="468" d="M180 69h280V0H101v629h79V69z"/><glyph glyph-name="M" unicode="M" horiz-adv-x="848" d="M214 629l212-426 210 426h111V0h-79v517L452 79h-53L180 524V0h-79v629h113z"/><glyph glyph-name="N" unicode="N" horiz-adv-x="685" d="M193 629l312-505v505h79V0h-88L179 512V0H99v629h94z"/><glyph glyph-name="O" unicode="O" horiz-adv-x="646" d="M323 640q122 0 197.5-83.5t75.5-243-75-242T323-11 125.5 72.5 51 314q0 159 74.5 242.5T323 640zm0-71q-88 0-139-66t-51-190 51-188 139-64 139.5 64T514 313t-51.5 190T323 569z"/><glyph glyph-name="P" unicode="P" horiz-adv-x="554" d="M460.5 576.5Q515 524 515 435t-54.5-140.5T302 243H178V0H99v629h203q104 0 158.5-52.5zM302 311q65 0 98.5 33t33.5 90.5-33.5 92T302 561H178V311h124z"/><glyph glyph-name="Q" unicode="Q" horiz-adv-x="652" d="M596-148q-40-19-84-19-85 0-146 89l-47 67Q198-9 124.5 74T51 315t74.5 241.5T323 640q122 0 197.5-83.5T596 314q0-132-53-212.5T399-2l31-44q29-39 69-41 43 0 97 25v-86zM323 569q-88 0-139-66t-51-190 51-188 139-64 139.5 64T514 313t-51.5 190T323 569z"/><glyph glyph-name="R" unicode="R" horiz-adv-x="613" d="M497.5 323Q456 275 375 261L555 0H453L290 257H180V0h-79v629h219q106 0 162.5-51T539 449t-41.5-126zM314 312q71 0 107.5 34.5t36.5 91-35.5 90T320 561H180V312h134z"/><glyph glyph-name="S" unicode="S" horiz-adv-x="605" d="M436 476q-17 92-135 92-63 0-97-27.5t-34-66 21-58.5 68-35l131-45q67-23 106.5-63T536 160.5t-62-122T308-11 137.5 41.5 69 189h77q0-62 43.5-95t112-33T410 91.5t40 72-24.5 65.5-72.5 40l-111 41q-78 26-118 62T84 477.5t56 116T297 640t154.5-44.5T513 476h-77z"/><glyph glyph-name="T" unicode="T" horiz-adv-x="501" d="M6 629h489v-68H290V0h-79v561H6v68z"/><glyph glyph-name="U" unicode="U" horiz-adv-x="654" d="M166 629V227q0-88 44-127t116-39 116 39 44 127v402h79V227q0-118-65-178T325.5-11t-174 60T87 227v402h79z"/><glyph glyph-name="V" unicode="V" horiz-adv-x="563" d="M101 629l180-529 181 529h83L322 0h-82L18 629h83z"/><glyph glyph-name="W" unicode="W" horiz-adv-x="895" d="M102 629l153-523 155 458h53l154-458 176 523h87L658 0h-83L438 403 296 0h-83L14 629h88z"/><glyph glyph-name="X" unicode="X" horiz-adv-x="642" d="M593 0h-98L313 251 144 0H48l222 312L47 629h95l180-257 166 257h95L366 313z"/><glyph glyph-name="Y" unicode="Y" horiz-adv-x="549" d="M104 629l169-289 173 289h93L313 258V0h-80v258L10 629h94z"/><glyph glyph-name="Z" unicode="Z" horiz-adv-x="592" d="M73 71l363 483-363 3v72h462v-71L172 75l363-3V0H73v71z"/><glyph glyph-name="bracketleft" unicode="[" horiz-adv-x="317" d="M101 731h198v-70H180V-32h119v-70H101v833z"/><glyph glyph-name="backslash" unicode="\" horiz-adv-x="432" d="M45 731h79L376-73h-80z"/><glyph glyph-name="bracketright" unicode="]" horiz-adv-x="285" d="M184-102H-14v70h119v693H-14v70h198v-833z"/><glyph glyph-name="asciicircum" unicode="^" horiz-adv-x="448" d="M21 245l176 341h61l176-341h-88L227 491 110 245H21z"/><glyph glyph-name="underscore" unicode="_" horiz-adv-x="726" d="M55-56h616v-68H55v68z"/><glyph glyph-name="grave" unicode="`" horiz-adv-x="315" d="M57 860l235-133-23-50L24 790z"/><glyph glyph-name="a" unicode="a" horiz-adv-x="560" d="M397 310q0 65-27 93t-78.5 28-83-20.5T177 346H90q0 110 118 136 36 8 78 8 89 0 139-45t50-137V0h-68l-8 80q-44-91-159-91-77 0-123.5 43T70 139t51.5 100T250 275t147-26v61zm0-111q-71 20-124 20t-86-19-33-60q0-90 102-90 58 0 99.5 41.5T397 199z"/><glyph glyph-name="b" unicode="b" horiz-adv-x="584" d="M180 407q48 83 140 83t153-68.5 61-181-62-182T321-11q-48 0-86.5 24T174 84L156 0h-55v681h79V407zm40-23.5Q182 347 180 282v-78q0-66 39.5-105.5T315 59t97 49.5T453 240t-40.5 131-97.5 49-95-36.5z"/><glyph glyph-name="c" unicode="c" horiz-adv-x="515" d="M395 446.5Q445 403 460 338l-80-7q-13 42-42 65.5T274 420q-64 0-103.5-48T131 241.5 169.5 109t96-50 86 26.5T380 161h81q0-77-53.5-124.5T268-11q-91 0-154.5 69T50 241.5 113 423t147.5 67T395 446.5z"/><glyph glyph-name="d" unicode="d" horiz-adv-x="594" d="M414 407v274h78V0h-64l-10 80q-23-45-61-68t-83-23q-91 0-152.5 70T60 241.5 120.5 422t153 68T414 407zm-233.5-36Q141 322 141 240t40-131.5T277 59t95.5 37.5T414 197v78q0 67-39 106t-97 39-97.5-49z"/><glyph glyph-name="e" unicode="e" horiz-adv-x="515" d="M266 53q99 0 113 87h81q-11-72-63.5-111.5T266-11q-96 0-156 68.5T50 240t60.5 182 161 68 150-78T456 222H129q0-74 36-121.5T266 53zm58 362q-23 12-56 12-61 0-96.5-41.5T130 282h255q0 100-61 133z"/><glyph glyph-name="f" unicode="f" horiz-adv-x="343" d="M333 614q-33 13-52 13-35 0-55-17t-20-60v-72h99v-54h-99V0h-78v424H49v54h79v73q0 71 39 104.5t90 33.5 90-13z"/><glyph glyph-name="g" unicode="g" horiz-adv-x="565" d="M121 15q-60 29-60 89 0 31 23.5 54.5T143 190q-54 48-54 126t55.5 126T276 490t129-36q7 53 42.5 85t93.5 32l-7-78q-88 0-92-74 35-43 35-103 0-77-55.5-126.5T283 140q-57 0-101 23-20-4-36-18.5T130 105q0-53 88-53h186q67 0 106-28.5T549-56q0-76-76.5-133T279-246 95-202.5 28-93q0 43 25.5 70T121 15zM106-90q0-38 41.5-65.5t126-27.5 141 36.5T471-61q0 23-16.5 39.5T404-5H211q-51-2-78-24.5T106-90zm263 490.5Q338 433 283.5 433T198 400.5 167 316t31.5-85.5T284 197t85 34 31 85.5-31 84z"/><glyph glyph-name="h" unicode="h" horiz-adv-x="604" d="M180 390q48 100 159 100 85 0 132.5-56T519 281V0h-78v281q0 69-32.5 104T315 420t-98-51.5T180 226V0h-79v681h79V390z"/><glyph glyph-name="i" unicode="i" horiz-adv-x="299" d="M106 479h79V0h-79v479zm1.5 125.5Q94 618 94 640.5t13.5 36T145 690t38.5-13.5 14.5-36-14.5-36T145 591t-37.5 13.5z"/><glyph glyph-name="j" unicode="j" horiz-adv-x="314" d="M122.5 604.5Q109 618 109 640.5t13.5 36T160 690t38.5-13.5 14.5-36-14.5-36T160 591t-37.5 13.5zM33-177q88 0 88 110v547h79V-67q0-137-90-169-28-10-62-10-62 0-134 37l4 69q63-37 115-37z"/><glyph glyph-name="k" unicode="k" horiz-adv-x="564" d="M244 253l-64-52V0h-79v681h79V285l231 193h110L301 299 532 0h-97z"/><glyph glyph-name="l" unicode="l" d="M101 681h79V0h-79v681z"/><glyph glyph-name="m" unicode="m" horiz-adv-x="935" d="M177 386q47 104 161 104 62 0 104-30.5t61-84.5q45 115 167 115 86 0 133-56t47-153V0h-78v281q0 69-32.5 104T646 420t-94.5-50T518 232V0h-78v281q0 69-32.5 104T315 420t-97-49-39-136V0h-79v478h68z"/><glyph glyph-name="n" unicode="n" horiz-adv-x="603" d="M177 386q47 104 161 104 85 0 132.5-56T518 281V0h-78v281q0 69-32.5 104T315 420t-97-49-39-136V0h-79v478h68z"/><glyph glyph-name="o" unicode="o" horiz-adv-x="546" d="M273 490q100 0 161.5-65T496 239q0-120-61.5-185T273-11 111.5 54 50 239q0 121 61.5 186T273 490zm107-116.5Q344 422 274.5 422T168 373.5t-37-134 35-134T270.5 57 378 105.5t38 134-36 134z"/><glyph glyph-name="p" unicode="p" horiz-adv-x="594" d="M175 405q47 85 140.5 85t156-69T534 239 471 57.5 316-11 180 58v-293h-79v713h65zm235.5-298Q453 155 453 238.5T412.5 371 314 420t-95-36.5-39-98.5v-91q0-63 38-99t94-36 98.5 48z"/><glyph glyph-name="q" unicode="q" horiz-adv-x="585" d="M264 490q102 0 148-90l17 78h54V-81q0-49 11.5-65.5t26-24T556-185l-26-61q-68 18-96.5 57T405-76V76q-41-87-134.5-87T114 57.5 51 239t62.5 182T264 490zm-91.5-119Q132 322 132 238.5T175 107t100-48q82 0 117 73 12 23 13 55v91q0 66-38 104t-96 38-98.5-49z"/><glyph glyph-name="r" unicode="r" horiz-adv-x="381" d="M296 411q-113 0-117-178V0h-79v479h79v-92q36 100 127 100 29 0 55-9l-4-77q-30 10-61 10z"/><glyph glyph-name="s" unicode="s" horiz-adv-x="526" d="M126.5 455Q177 490 263 490t134.5-36 50.5-91h-77q-9 65-110 65-49 0-75.5-22T159 358.5t20-43 64-30.5l96-32q61-19 93.5-48.5t32.5-81-53-93T264-11 116 31.5 60 141h76q2-45 36.5-67.5T259 51t86 22 34 52.5-20 46.5-65 28l-93 31Q76 268 76 361q0 59 50.5 94z"/><glyph glyph-name="t" unicode="t" horiz-adv-x="376" d="M351 14Q265-26 194-3q-51 16-72 67-11 25-11 60v294H34v60h77v133h78V478h150v-60H189V125q0-73 68-73 37 0 83 18z"/><glyph glyph-name="u" unicode="u" horiz-adv-x="606" d="M426 95Q377-9 267-9q-81 0-130.5 45T87 175v304h79V181q0-121 112-121 65 0 105.5 50T426 238v241h79V0h-79v95z"/><glyph glyph-name="v" unicode="v" horiz-adv-x="503" d="M107 478L251 83l145 395h89L295 0h-87L18 478h89z"/><glyph glyph-name="w" unicode="w" horiz-adv-x="725" d="M100 478L216 97l114 358h66L509 93l117 385h78L548 0h-77L361 335 253 0h-76L18 478h82z"/><glyph glyph-name="x" unicode="x" horiz-adv-x="512" d="M485 0h-96L252 181 122 0H26l181 239L26 479h96l137-180 131 180h96L303 239z"/><glyph glyph-name="y" unicode="y" horiz-adv-x="484" d="M5-139q49-38 103-38 40 0 69 40 21 29 38 88l14 49L33 478h88L266 97l113 381h80L280-95q-23-73-60.5-112t-95-39T5-211v72z"/><glyph glyph-name="z" unicode="z" horiz-adv-x="475" d="M53 64l281 350H53v64h370v-64L146 64h277V0H53v64z"/><glyph glyph-name="braceleft" unicode="{" horiz-adv-x="349" d="M154 303q52-25 52-113V97q0-81 30.5-123.5T341-69v-69q-213 0-213 234v92q0 43-8.5 61T92 267H75v76h17q19 0 27.5 17.5T128 422v91q0 168 114 217 40 18 99 18v-69q-74 0-104.5-42.5T206 512v-92q0-86-52-113v-4z"/><glyph glyph-name="bar" unicode="|" d="M101 750h79v-872h-79v872z"/><glyph glyph-name="braceright" unicode="}" horiz-adv-x="349" d="M195 307q-52 27-52 113v92q0 82-30.5 124.5T8 679v69q213 0 213-235v-91q0-44 8.5-61.5T257 343h17v-76h-17q-19 0-27.5-18t-8.5-61V96q0-168-114-216-41-18-99-18v69q74 0 104.5 42.5T143 97v93q0 88 52 113v4z"/><glyph glyph-name="asciitilde" unicode="~" horiz-adv-x="515" d="M158 282q-37 0-61-59l-44 23q33 111 107 111 34 0 101-27.5t93-27.5q40 0 65 57l43-27q-35-106-113-106-23 0-71 18t-62 24q-39 14-58 14z"/><glyph glyph-name="sterling" unicode="£" horiz-adv-x="565" d="M400 490q-16 78-102 78-42 0-70.5-32T199 432V323h182v-56H199V163q0-68-37-94h183q49 0 71.5 20.5T445 154h84q-6-77-48-115.5T345 0H20v69h28q38 0 55.5 22t17.5 68v108H30v56h91v109q0 99 46.5 153.5T305 640q71 0 116-38t56-112h-77z"/><glyph glyph-name="dieresis" unicode="¨" horiz-adv-x="323" d="M38.5 793.5Q24 808 24 829t14.5 35.5T76 879t38.5-14.5T130 829t-15.5-35.5T76 779t-37.5 14.5zm168.5 0Q192 808 192 829t15 35.5 37.5 14.5 38-14.5T298 829t-15.5-35.5-38-14.5-37.5 14.5z"/><glyph glyph-name="acute" unicode="´" horiz-adv-x="315" d="M290 790L46 677l-23 50 235 133z"/><glyph glyph-name="Agrave" unicode="À" horiz-adv-x="575" d="M242 629h96L549 0h-82l-54 160H163L109 0H26zm-58-407h209L289 532zm6 638l235-133-23-50-245 113z"/><glyph glyph-name="Aacute" unicode="Á" horiz-adv-x="575" d="M242 629h96L549 0h-82l-54 160H163L109 0H26zm-58-407h209L289 532zm239 568L179 677l-23 50 235 133z"/><glyph glyph-name="Acircumflex" unicode="Â" horiz-adv-x="575" d="M242 629h96L549 0h-82l-54 160H163L109 0H26zm-58-407h209L289 532zm285 494l-50-39-129 108-130-108-50 39 180 156z"/><glyph glyph-name="Atilde" unicode="Ã" horiz-adv-x="575" d="M242 629h96L549 0h-82l-54 160H163L109 0H26zm-58-407h209L289 532zm37 548q-32 0-57-51l-32 19q12 51 35 77.5t49 26.5 60-17q46-23 59.5-29t26.5-6 27 12.5 24 39.5l35-23q-11-48-35.5-74t-45-26-37.5 6-47 21.5-40.5 19.5-21.5 4z"/><glyph glyph-name="Adieresis" unicode="Ä" horiz-adv-x="575" d="M242 629h96L549 0h-82l-54 160H163L109 0H26zm-58-407h209L289 532zm4.5 527.5Q174 764 174 785t14.5 35.5T226 835t38.5-14.5T280 785t-15.5-35.5T226 735t-37.5 14.5zm168.5 0Q342 764 342 785t15 35.5 37.5 14.5 38-14.5T448 785t-15.5-35.5-38-14.5-37.5 14.5z"/><glyph glyph-name="Egrave" unicode="È" horiz-adv-x="564" d="M100 629h387v-68H179V350h290v-67H179V69h308V0H100v629zm94 231l235-133-23-50-245 113z"/><glyph glyph-name="Eacute" unicode="É" horiz-adv-x="564" d="M100 0h387v69H179v214h290v67H179v211h308v68H100V0zm327 790L183 677l-23 50 235 133z"/><glyph glyph-name="Ecircumflex" unicode="Ê" horiz-adv-x="564" d="M105 629h387v-68H184V350h290v-67H184V69h308V0H105v629zm374 87l-50-39-129 108-130-108-50 39 180 156z"/><glyph glyph-name="Edieresis" unicode="Ë" horiz-adv-x="564" d="M100 629h387v-68H179V350h290v-67H179V69h308V0H100v629zm72.5 120.5Q158 764 158 785t14.5 35.5T210 835t38.5-14.5T264 785t-15.5-35.5T210 735t-37.5 14.5zm168.5 0Q326 764 326 785t15 35.5 37.5 14.5 38-14.5T432 785t-15.5-35.5-38-14.5-37.5 14.5z"/><glyph glyph-name="Igrave" unicode="Ì" d="M101 629h79V0h-79v629zM40 860l235-133-23-50L7 790z"/><glyph glyph-name="Iacute" unicode="Í" d="M101 0h79v629h-79V0zm172 790L29 677 6 727l235 133z"/><glyph glyph-name="Icircumflex" unicode="Î" d="M101 629h79V0h-79v629zm219 87l-50-39-129 108L11 677l-50 39 180 156z"/><glyph glyph-name="Idieresis" unicode="Ï" d="M101 629h79V0h-79v629zM18.5 749.5Q4 764 4 785t14.5 35.5T56 835t38.5-14.5T110 785t-15.5-35.5T56 735t-37.5 14.5zm168.5 0Q172 764 172 785t15 35.5 37.5 14.5 38-14.5T278 785t-15.5-35.5-38-14.5-37.5 14.5z"/><glyph glyph-name="Ntilde" unicode="Ñ" horiz-adv-x="686" d="M99 629V0h80v512L496 0h88v629h-79V124L193 629H99zm175 141q-32 0-57-51l-32 19q12 51 35 77.5t49 26.5 59-17q47-23 60.5-29t26.5-6 27 12.5 24 39.5l35-23q-11-48-35.5-74t-45-26-37.5 6-47 21.5-40.5 19.5-21.5 4z"/><glyph glyph-name="Ograve" unicode="Ò" horiz-adv-x="646" d="M323 640q122 0 197.5-83.5t75.5-243-75-242T323-11 125.5 72.5 51 314q0 159 74.5 242.5T323 640zm0-71q-88 0-139-66t-51-190 51-188 139-64 139.5 64T514 313t-51.5 190T323 569zM223 860l235-133-23-50-245 113z"/><glyph glyph-name="Oacute" unicode="Ó" horiz-adv-x="646" d="M323 640q-123 0-197.5-83.5T51 314q0-158 74.5-241.5T323-11t198 82.5 75 242-75.5 243T323 640zm0-71q88 0 139.5-66T514 313t-51.5-188T323 61t-139 64-51 188 51 190 139 66zm133 221L212 677l-23 50 235 133z"/><glyph glyph-name="Ocircumflex" unicode="Ô" horiz-adv-x="646" d="M323 640q122 0 197.5-83.5t75.5-243-75-242T323-11 125.5 72.5 51 314q0 159 74.5 242.5T323 640zm0-71q-88 0-139-66t-51-190 51-188 139-64 139.5 64T514 313t-51.5 190T323 569zm179 147l-50-39-129 108-130-108-50 39 180 156z"/><glyph glyph-name="Otilde" unicode="Õ" horiz-adv-x="646" d="M323 640q-123 0-197.5-83.5T51 314q0-158 74.5-241.5T323-11t198 82.5 75 242-75.5 243T323 640zm0-71q88 0 139.5-66T514 313t-51.5-188T323 61t-139 64-51 188 51 190 139 66zm-69 201q-32 0-57-51l-32 19q12 51 35 77.5t49 26.5 59-17q47-23 60.5-29t26.5-6 27 12.5 24 39.5l35-23q-11-48-35.5-74t-45-26-37.5 6-47 21.5-40.5 19.5-21.5 4z"/><glyph glyph-name="Odieresis" unicode="Ö" horiz-adv-x="646" d="M323 640q122 0 197.5-83.5t75.5-243-75-242T323-11 125.5 72.5 51 314q0 159 74.5 242.5T323 640zm0-71q-88 0-139-66t-51-190 51-188 139-64 139.5 64T514 313t-51.5 190T323 569zM200.5 749.5Q186 764 186 785t14.5 35.5T238 835t38.5-14.5T292 785t-15.5-35.5T238 735t-37.5 14.5zm168.5 0Q354 764 354 785t15 35.5 37.5 14.5 38-14.5T460 785t-15.5-35.5-38-14.5-37.5 14.5z"/><glyph glyph-name="Ugrave" unicode="Ù" horiz-adv-x="654" d="M166 629V227q0-88 44-127t116-39 116 39 44 127v402h79V227q0-118-65-178T325.5-11t-174 60T87 227v402h79zm60 231l235-133-23-50-245 113z"/><glyph glyph-name="Uacute" unicode="Ú" horiz-adv-x="654" d="M87 629V227q0-118 64.5-178t174-60T500 49t65 178v402h-79V227q0-88-44-127T326 61t-116 39-44 127v402H87zm372 161L215 677l-23 50 235 133z"/><glyph glyph-name="Ucircumflex" unicode="Û" horiz-adv-x="654" d="M166 629V227q0-88 44-127t116-39 116 39 44 127v402h79V227q0-118-65-178T325.5-11t-174 60T87 227v402h79zm339 87l-50-39-129 108-130-108-50 39 180 156z"/><glyph glyph-name="Udieresis" unicode="Ü" horiz-adv-x="654" d="M166 629V227q0-88 44-127t116-39 116 39 44 127v402h79V227q0-118-65-178T325.5-11t-174 60T87 227v402h79zm37.5 120.5Q189 764 189 785t14.5 35.5T241 835t38.5-14.5T295 785t-15.5-35.5T241 735t-37.5 14.5zm168.5 0Q357 764 357 785t15 35.5 37.5 14.5 38-14.5T463 785t-15.5-35.5-38-14.5-37.5 14.5z"/><glyph glyph-name="agrave" unicode="à" horiz-adv-x="551" d="M387 310q0 65-27 93t-78.5 28-83-20.5T167 346H80q0 110 118 136 36 8 78 8 89 0 139-45t50-137V0h-68l-8 80q-44-91-159-91-77 0-123.5 43T60 139t51.5 100T240 275t147-26v61zm0-111q-71 20-124 20t-86-19-33-60q0-90 102-90 58 0 99.5 41.5T387 199zM182 731l235-133-23-50-245 113z"/><glyph glyph-name="aacute" unicode="á" horiz-adv-x="551" d="M387 310q0 65-27 93t-78.5 28-83-20.5T167 346H80q0 110 118 136 36 8 78 8 89 0 139-45t50-137V0h-68l-8 80q-44-91-159-91-77 0-123.5 43T60 139t51.5 100T240 275t147-26v61zm0-111q-71 20-124 20t-86-19-33-60q0-90 102-90 57 0 98 40t43 103v6zm28 462L171 548l-23 50 235 133z"/><glyph glyph-name="acircumflex" unicode="â" horiz-adv-x="551" d="M387 310q0 65-27 93t-78.5 28-83-20.5T167 346H80q0 110 118 136 36 8 78 8 89 0 139-45t50-137V0h-68l-8 80q-44-91-159-91-77 0-123.5 43T60 139t51.5 100T240 275t147-26v61zm0-111q-71 20-124 20t-86-19-33-60q0-90 102-90 58 0 99.5 41.5T387 199zm74 388l-50-39-129 108-130-108-50 39 180 156z"/><glyph glyph-name="atilde" unicode="ã" horiz-adv-x="551" d="M387 310q0 65-27 93t-78.5 28-83-20.5T167 346H80q0 110 118 136 36 8 78 8 89 0 139-45t50-137V0h-68l-8 80q-44-91-159-91-77 0-123.5 43T60 139t51.5 100T240 275t147-26v61zm0-111q-71 20-124 20t-86-19-33-60q0-90 102-90 57 0 98 40t43 103v6zM213 641q-32 0-57-51l-32 19q12 51 35 77.5t49 26.5 60-17q46-23 59.5-29t26.5-6 27 12.5 24 39.5l35-23q-11-48-35.5-74t-45-26-37.5 6-47 21.5-40.5 19.5-21.5 4z"/><glyph glyph-name="adieresis" unicode="ä" horiz-adv-x="551" d="M387 310q0 65-27 93t-78.5 28-83-20.5T167 346H80q0 110 118 136 36 8 78 8 89 0 139-45t50-137V0h-68l-8 80q-44-91-159-91-77 0-123.5 43T60 139t51.5 100T240 275t147-26v61zm0-111q-71 20-124 20t-86-19-33-60q0-90 102-90 58 0 99.5 41.5T387 199zM159.5 619.5Q145 634 145 655t14.5 35.5T197 705t38.5-14.5T251 655t-15.5-35.5T197 605t-37.5 14.5zm168.5 0Q313 634 313 655t15 35.5 37.5 14.5 38-14.5T419 655t-15.5-35.5-38-14.5-37.5 14.5z"/><glyph glyph-name="egrave" unicode="è" horiz-adv-x="514" d="M267 53q99 0 113 87h81q-11-72-63.5-111.5T267-11q-96 0-156 68.5T51 240t60.5 182 161 68 150-78T457 222H130q0-74 36-121.5T267 53zm57 362q-22 12-54 12-62 0-97.5-41.5T131 282h255q0 100-62 133zM159 736l235-133-23-50-245 113z"/><glyph glyph-name="eacute" unicode="é" horiz-adv-x="514" d="M380 140q-14-87-113-87-65 0-101 47.5T130 222h327q15 112-34.5 190t-150 78-161-68T51 240t60-182.5T267-11q78 0 130.5 39.5T461 140h-81zm-21.5 245.5Q386 344 386 282H131q6 62 41.5 103.5t97 41.5 89-41.5zM392 666L148 553l-23 50 235 133z"/><glyph glyph-name="ecircumflex" unicode="ê" horiz-adv-x="514" d="M270 53q99 0 113 87h81q-11-72-63.5-111.5T270-11q-96 0-156 68.5T54 240t60.5 182 161 68 150-78T460 222H133q0-74 36-121.5T270 53zm58 362q-23 12-56 12-61 0-96.5-41.5T134 282h255q0 100-61 133zm114 177l-50-39-129 108-130-108-50 39 180 156z"/><glyph glyph-name="edieresis" unicode="ë" horiz-adv-x="514" d="M267 53q99 0 113 87h81q-11-72-63.5-111.5T267-11q-96 0-156 68.5T51 240t60.5 182 161 68 150-78T457 222H130q0-74 36-121.5T267 53zm57 362q-22 12-54 12-62 0-97.5-41.5T131 282h255q0 100-62 133zM137.5 619.5Q123 634 123 655t14.5 35.5T175 705t38.5-14.5T229 655t-15.5-35.5T175 605t-37.5 14.5zm168.5 0Q291 634 291 655t15 35.5 37.5 14.5 38-14.5T397 655t-15.5-35.5-38-14.5-37.5 14.5z"/><glyph glyph-name="igrave" unicode="ì" horiz-adv-x="299" d="M106 479h79V0h-79v479zM45 731l235-133-23-50L12 661z"/><glyph glyph-name="iacute" unicode="í" horiz-adv-x="299" d="M106 0h79v479h-79V0zm172 661L34 548l-23 50 235 133z"/><glyph glyph-name="icircumflex" unicode="î" horiz-adv-x="299" d="M106 479h79V0h-79v479zm219 108l-50-39-129 108L16 548l-50 39 180 156z"/><glyph glyph-name="idieresis" unicode="ï" horiz-adv-x="299" d="M106 479h79V0h-79v479zM23.5 619.5Q9 634 9 655t14.5 35.5T61 705t38.5-14.5T115 655t-15.5-35.5T61 605t-37.5 14.5zm168.5 0Q177 634 177 655t15 35.5 37.5 14.5 38-14.5T283 655t-15.5-35.5-38-14.5-37.5 14.5z"/><glyph glyph-name="ntilde" unicode="ñ" horiz-adv-x="604" d="M339 490q-114 0-161-104l-9 92h-68V0h79v235q2 87 39 136t97 49 92.5-35T441 281V0h78v281q0 97-47.5 153T339 490zM237 641q-32 0-57-51l-32 19q12 51 35 77.5t49 26.5 60-17q46-23 59.5-29t26.5-6 27 12.5 24 39.5l35-23q-11-48-35.5-74t-45-26-37.5 6-47 21.5-40.5 19.5-21.5 4z"/><glyph glyph-name="ograve" unicode="ò" horiz-adv-x="547" d="M274 490q100 0 161.5-65T497 239q0-120-61.5-185T274-11 112.5 54 51 239q0 121 61.5 186T274 490zm107-116.5Q345 422 275.5 422T169 373.5t-37-134 35-134T271.5 57 379 105.5t38 134-36 134zM174 731l235-133-23-50-245 113z"/><glyph glyph-name="oacute" unicode="ó" horiz-adv-x="547" d="M274 490q-100 0-161.5-65T51 239q0-120 61.5-185T274-11t161.5 65T497 239q0 121-61.5 186T274 490zM169 373.5Q206 422 275.5 422T381 373.5t36-134-38-134T271.5 57 167 105.5t-35 134 37 134zM407 661L163 548l-23 50 235 133z"/><glyph glyph-name="ocircumflex" unicode="ô" horiz-adv-x="547" d="M274 490q100 0 161.5-65T497 239q0-120-61.5-185T274-11 112.5 54 51 239q0 121 61.5 186T274 490zm107-116.5Q345 422 275.5 422T169 373.5t-37-134 35-134T271.5 57 379 105.5t38 134-36 134zM453 587l-50-39-129 108-130-108-50 39 180 156z"/><glyph glyph-name="otilde" unicode="õ" horiz-adv-x="547" d="M274 490q-100 0-161.5-65T51 239q0-120 61.5-185T274-11t161.5 65T497 239q0 121-61.5 186T274 490zM169 373.5Q206 422 275.5 422T381 373.5t36-134-38-134T271.5 57 167 105.5t-35 134 37 134zM206 641q-32 0-57-51l-32 19q12 51 35 77.5t49 26.5 59-17q47-23 60.5-29t26.5-6 27 12.5 24 39.5l35-23q-11-48-35.5-74t-45-26-37.5 6-47 21.5-40.5 19.5-21.5 4z"/><glyph glyph-name="odieresis" unicode="ö" horiz-adv-x="547" d="M274 490q100 0 161.5-65T497 239q0-120-61.5-185T274-11 112.5 54 51 239q0 121 61.5 186T274 490zm107-116.5Q345 422 275.5 422T169 373.5t-37-134 35-134T271.5 57 379 105.5t38 134-36 134zm-228.5 246Q138 634 138 655t14.5 35.5T190 705t38.5-14.5T244 655t-15.5-35.5T190 605t-37.5 14.5zm168.5 0Q306 634 306 655t15 35.5 37.5 14.5 38-14.5T412 655t-15.5-35.5-38-14.5-37.5 14.5z"/><glyph glyph-name="ugrave" unicode="ù" horiz-adv-x="606" d="M426 95Q377-9 267-9q-81 0-130.5 45T87 175v304h79V181q0-121 112-121 65 0 105.5 50T426 238v241h79V0h-79v95zM200 769l235-133-23-50-245 113z"/><glyph glyph-name="uacute" unicode="ú" horiz-adv-x="606" d="M267-9Q377-9 426 95V0h79v479h-79V246q0-83-41-134.5T278 60q-112 0-112 121v298H87V175q0-94 49.5-139T267-9zm166 708L189 586l-23 50 235 133z"/><glyph glyph-name="ucircumflex" unicode="û" horiz-adv-x="606" d="M426 95Q377-9 267-9q-81 0-130.5 45T87 175v304h79V181q0-121 112-121 65 0 105.5 50T426 238v241h79V0h-79v95zm54 530l-50-39-129 108-130-108-50 39 180 156z"/><glyph glyph-name="udieresis" unicode="ü" horiz-adv-x="606" d="M426 95Q377-9 267-9q-81 0-130.5 45T87 175v304h79V181q0-121 112-121 65 0 105.5 50T426 238v241h79V0h-79v95zM178.5 619.5Q164 634 164 655t14.5 35.5T216 705t38.5-14.5T270 655t-15.5-35.5T216 605t-37.5 14.5zm168.5 0Q332 634 332 655t15 35.5 37.5 14.5 38-14.5T438 655t-15.5-35.5-38-14.5-37.5 14.5z"/><glyph glyph-name="dotlessi" unicode="ı" d="M101 479h79V0h-79v479z"/><glyph glyph-name="apostrophe" unicode="ʼ" horiz-adv-x="184" d="M73 538q-15 13-15 35t15.5 37 44 15 47.5-22.5 19-56.5-22-69.5T95 419l-59 29q62 30 75 75-23 2-38 15z"/><glyph glyph-name="circumflex" unicode="ˆ" horiz-adv-x="407" d="M383 716l-50-39-129 108L74 677l-50 39 180 156z"/><glyph glyph-name="tilde" unicode="˜" horiz-adv-x="366" d="M112 770q-32 0-57-51l-32 19q12 51 35 77.5t49 26.5 59-17q47-23 60.5-29t26.5-6 27 12.5 24 39.5l35-23q-11-48-35.5-74t-45-26-37.5 6-47 21.5-40.5 19.5-21.5 4z"/><glyph glyph-name="endash" unicode="–" horiz-adv-x="474" d="M55 325h364v-68H55v68z"/><glyph glyph-name="emdash" unicode="—" horiz-adv-x="726" d="M55 325h616v-68H55v68z"/><glyph glyph-name="quoteleft" unicode="‘" horiz-adv-x="214" d="M146.5 433.5Q131 418 103 418t-47.5 23T36 498.5t23.5 70T128 626l56-29q-62-32-75-76 23-2 38-15t15-35-15.5-37.5z"/><glyph glyph-name="quoteright" unicode="’" horiz-adv-x="214" d="M52 611q16 15 44.5 15t47-22 18.5-57-23.5-70.5T71 418l-56 30q62 32 75 76-23 2-38.5 15T36 574t16 37z"/><glyph glyph-name="rupeesymbol" unicode="₹" horiz-adv-x="581" d="M92 629h416v-49H325q69-36 84-103h99v-48h-94q-7-115-119-159-40-15-95-20L474 0H362L92 248v48h61q87 0 129 38t45 95H92v48h231q-11 46-52.5 74.5T153 580H92v49z"/><glyph glyph-name="minus" unicode="−" horiz-adv-x="488" d="M409 325v-67H79v67h330z"/><glyph glyph-name="zero.propold" horiz-adv-x="531" d="M265.5 551q98.5 0 157-73T481 270 422.5 62t-157-73T109 61.5 51 270t58 208.5T265.5 551zM400 270q0 212-134 212T132 270q0-211 134-211t134 211z"/><glyph glyph-name="one.propold" horiz-adv-x="331" d="M49 489q69 11 117 52h64V0h-78v446q-51-32-103-34v77z"/><glyph glyph-name="two.propold" horiz-adv-x="575" d="M143 73h357V0H64v84q0 80 37 121.5T214 264l103 25q53 12 78.5 36t25.5 63-32 66-90 27-94.5-23-42.5-70H75q5 78 63 120.5T290.5 551 443 502.5 501 388t-37-102.5T351 231l-111-27q-97-22-97-99V73z"/><glyph glyph-name="three.propold" horiz-adv-x="562" d="M260 483q-110 0-131-93H46q22 161 213 161 93 0 151-46.5T468 384q0-51-28.5-82T360 252q61-20 97-67.5T493 74q0-82-64.5-135T262-114 94-62 28 88h80q2-69 43.5-101.5t107-32.5T368-10.5 412 79q0 88-89 121-30 11-72 11h-61v63h43q72 0 113.5 26t41.5 75-34 78.5-94 29.5z"/><glyph glyph-name="four.propold" horiz-adv-x="560" d="M427 546V121h109V54H427v-159h-78V54H24v61l329 431h74zM112 115h239v307z"/><glyph glyph-name="five.propold" horiz-adv-x="569" d="M187 296q46 10 94 10 105 0 165-53t60-147-67-157-162-63-153.5 50T65 75h77q0-57 35-87t98-30T382 0t44 105.5-40.5 99.5T266 241H104l28 304h345v-71H205z"/><glyph glyph-name="six.propold" horiz-adv-x="573" d="M425 470q-17 98-107 98t-138.5-74T131 292q0-53 5-88 6 92 56.5 133.5T322 379t136-55.5 57-142-59-140T301-12q-112 0-181 90T51 314.5t70 236T312 640q84 0 137-47t61-123h-85zM207.5 273.5Q170 238 170 183t37-88.5T301 61t94.5 33 37.5 91-37.5 91-94 33-94-35.5z"/><glyph glyph-name="seven.propold" horiz-adv-x="470" d="M452 551v-67L152-98H55l314 579H24v70h428z"/><glyph glyph-name="eight.propold" horiz-adv-x="615" d="M201 318Q76 375 76 473q0 75 62 121t164.5 46T471 591t66-126q0-52-34.5-93T401 321l17-6q69-26 106-61.5t37-96.5q0-76-67.5-122t-182-46T126 40 55 168q0 62 40.5 101T201 318zm75-29q-63-7-101-39.5T137 169t48-78 125.5-30 123 26 45.5 63-24 59.5-66 37.5zM159 463q0-27 22-46.5t63-35.5l73-28q60 2 99 31.5t39 77-41 77T308 568t-107-28.5-42-76.5z"/><glyph glyph-name="nine.propold" horiz-adv-x="580" d="M286 551q53 0 99.5-25.5T464 456q66-89 66-239T465-23.5 281-114q-93 0-152 55.5T70 83h83q2-57 34.5-91t85-34T356-22q93 57 93 260 0 45-5 80-8-77-55-119.5T263.5 156t-138 56T66 354q0 87 59 142t161 55zm-7-70q-60 0-95.5-34.5t-35.5-93 36-93 94.5-34.5 95.5 37 37 93-36 90.5-96 34.5z"/></font>
</defs>
</svg>
